<?xml version="1.0" encoding="UTF-8" standalone="no"?>
<!DOCTYPE svg PUBLIC "-//W3C//DTD SVG 1.1//EN"
 "http://www.w3.org/Graphics/SVG/1.1/DTD/svg11.dtd">
<!-- Generated by graphviz version 2.47.3 (20210619.1520)
 -->
<!-- Title: dependencies Pages: 1 -->
<svg width="2053pt" height="247pt"
 viewBox="0.00 0.00 2053.00 246.80" xmlns="http://www.w3.org/2000/svg" xmlns:xlink="http://www.w3.org/1999/xlink">
<g id="graph0" class="graph" transform="scale(1 1) rotate(0) translate(4 242.8)">
<title>dependencies</title>
<polygon fill="white" stroke="transparent" points="-4,4 -4,-242.8 2049,-242.8 2049,4 -4,4"/>
<text text-anchor="middle" x="1022.5" y="-8.2" font-family="sans-serif" font-size="14.00">dependencies</text>
<g id="clust1" class="cluster">
<title>cluster_AppModule</title>
<polygon fill="none" stroke="black" stroke-dasharray="1,5" points="8,-32.8 8,-230.8 2037,-230.8 2037,-32.8 8,-32.8"/>
</g>
<g id="clust2" class="cluster">
<title>cluster_AppModule_declarations</title>
<polygon fill="none" stroke="black" points="338,-40.8 338,-92.8 2029,-92.8 2029,-40.8 338,-40.8"/>
</g>
<g id="clust15" class="cluster">
<title>cluster_AppModule_imports</title>
<polygon fill="none" stroke="black" points="186,-40.8 186,-92.8 330,-92.8 330,-40.8 186,-40.8"/>
</g>
<g id="clust17" class="cluster">
<title>cluster_AppModule_bootstrap</title>
<polygon fill="none" stroke="black" points="994,-170.8 994,-222.8 1118,-222.8 1118,-170.8 994,-170.8"/>
</g>
<g id="clust18" class="cluster">
<title>cluster_AppModule_providers</title>
<polygon fill="none" stroke="black" points="16,-40.8 16,-92.8 178,-92.8 178,-40.8 16,-40.8"/>
</g>
<!-- AgregarComponent -->
<g id="node1" class="node">
<title>AgregarComponent</title>
<polygon fill="#ffffb3" stroke="black" points="2020.69,-84.8 1893.31,-84.8 1893.31,-48.8 2020.69,-48.8 2020.69,-84.8"/>
<text text-anchor="middle" x="1957" y="-62.6" font-family="Times,serif" font-size="14.00">AgregarComponent</text>
</g>
<!-- AppModule -->
<g id="node13" class="node">
<title>AppModule</title>
<polygon fill="#8dd3c7" stroke="black" points="1097.66,-149.8 1094.66,-153.8 1073.66,-153.8 1070.66,-149.8 1014.34,-149.8 1014.34,-113.8 1097.66,-113.8 1097.66,-149.8"/>
<text text-anchor="middle" x="1056" y="-127.6" font-family="Times,serif" font-size="14.00">AppModule</text>
</g>
<!-- AgregarComponent&#45;&gt;AppModule -->
<g id="edge1" class="edge">
<title>AgregarComponent&#45;&gt;AppModule</title>
<path fill="none" stroke="black" d="M1957,-84.89C1957,-107.93 1957,-144.8 1957,-144.8 1957,-144.8 1107.95,-144.8 1107.95,-144.8"/>
<polygon fill="black" stroke="black" points="1107.95,-141.3 1097.95,-144.8 1107.95,-148.3 1107.95,-141.3"/>
</g>
<!-- AppComponent -->
<g id="node2" class="node">
<title>AppComponent</title>
<polygon fill="#ffffb3" stroke="black" points="1875.94,-84.8 1770.06,-84.8 1770.06,-48.8 1875.94,-48.8 1875.94,-84.8"/>
<text text-anchor="middle" x="1823" y="-62.6" font-family="Times,serif" font-size="14.00">AppComponent</text>
</g>
<!-- AppComponent&#45;&gt;AppModule -->
<g id="edge2" class="edge">
<title>AppComponent&#45;&gt;AppModule</title>
<path fill="none" stroke="black" d="M1823,-84.84C1823,-106.46 1823,-139.8 1823,-139.8 1823,-139.8 1107.78,-139.8 1107.78,-139.8"/>
<polygon fill="black" stroke="black" points="1107.78,-136.3 1097.78,-139.8 1107.78,-143.3 1107.78,-136.3"/>
</g>
<!-- DetallesComponent -->
<g id="node3" class="node">
<title>DetallesComponent</title>
<polygon fill="#ffffb3" stroke="black" points="1752.7,-84.8 1625.3,-84.8 1625.3,-48.8 1752.7,-48.8 1752.7,-84.8"/>
<text text-anchor="middle" x="1689" y="-62.6" font-family="Times,serif" font-size="14.00">DetallesComponent</text>
</g>
<!-- DetallesComponent&#45;&gt;AppModule -->
<g id="edge3" class="edge">
<title>DetallesComponent&#45;&gt;AppModule</title>
<path fill="none" stroke="black" d="M1689,-85.02C1689,-105.17 1689,-134.8 1689,-134.8 1689,-134.8 1108.02,-134.8 1108.02,-134.8"/>
<polygon fill="black" stroke="black" points="1108.02,-131.3 1098.02,-134.8 1108.02,-138.3 1108.02,-131.3"/>
</g>
<!-- FooterComponent -->
<g id="node4" class="node">
<title>FooterComponent</title>
<polygon fill="#ffffb3" stroke="black" points="1606.88,-84.8 1489.12,-84.8 1489.12,-48.8 1606.88,-48.8 1606.88,-84.8"/>
<text text-anchor="middle" x="1548" y="-62.6" font-family="Times,serif" font-size="14.00">FooterComponent</text>
</g>
<!-- FooterComponent&#45;&gt;AppModule -->
<g id="edge4" class="edge">
<title>FooterComponent&#45;&gt;AppModule</title>
<path fill="none" stroke="black" d="M1548,-85.02C1548,-103.63 1548,-129.8 1548,-129.8 1548,-129.8 1107.95,-129.8 1107.95,-129.8"/>
<polygon fill="black" stroke="black" points="1107.95,-126.3 1097.95,-129.8 1107.95,-133.3 1107.95,-126.3"/>
</g>
<!-- GenerarpdfComponent -->
<g id="node5" class="node">
<title>GenerarpdfComponent</title>
<polygon fill="#ffffb3" stroke="black" points="1471.56,-84.8 1326.44,-84.8 1326.44,-48.8 1471.56,-48.8 1471.56,-84.8"/>
<text text-anchor="middle" x="1399" y="-62.6" font-family="Times,serif" font-size="14.00">GenerarpdfComponent</text>
</g>
<!-- GenerarpdfComponent&#45;&gt;AppModule -->
<g id="edge5" class="edge">
<title>GenerarpdfComponent&#45;&gt;AppModule</title>
<path fill="none" stroke="black" d="M1399,-84.83C1399,-101.86 1399,-124.8 1399,-124.8 1399,-124.8 1107.72,-124.8 1107.72,-124.8"/>
<polygon fill="black" stroke="black" points="1107.72,-121.3 1097.72,-124.8 1107.72,-128.3 1107.72,-121.3"/>
</g>
<!-- HomeComponent -->
<g id="node6" class="node">
<title>HomeComponent</title>
<polygon fill="#ffffb3" stroke="black" points="1308.55,-84.8 1193.45,-84.8 1193.45,-48.8 1308.55,-48.8 1308.55,-84.8"/>
<text text-anchor="middle" x="1251" y="-62.6" font-family="Times,serif" font-size="14.00">HomeComponent</text>
</g>
<!-- HomeComponent&#45;&gt;AppModule -->
<g id="edge6" class="edge">
<title>HomeComponent&#45;&gt;AppModule</title>
<path fill="none" stroke="black" d="M1251,-85.04C1251,-100.37 1251,-119.8 1251,-119.8 1251,-119.8 1107.83,-119.8 1107.83,-119.8"/>
<polygon fill="black" stroke="black" points="1107.83,-116.3 1097.83,-119.8 1107.83,-123.3 1107.83,-116.3"/>
</g>
<!-- ListaComponent -->
<g id="node7" class="node">
<title>ListaComponent</title>
<polygon fill="#ffffb3" stroke="black" points="1175.83,-84.8 1066.17,-84.8 1066.17,-48.8 1175.83,-48.8 1175.83,-84.8"/>
<text text-anchor="middle" x="1121" y="-62.6" font-family="Times,serif" font-size="14.00">ListaComponent</text>
</g>
<!-- ListaComponent&#45;&gt;AppModule -->
<g id="edge7" class="edge">
<title>ListaComponent&#45;&gt;AppModule</title>
<path fill="none" stroke="black" d="M1082.08,-84.91C1082.08,-84.91 1082.08,-103.79 1082.08,-103.79"/>
<polygon fill="black" stroke="black" points="1078.58,-103.79 1082.08,-113.79 1085.58,-103.79 1078.58,-103.79"/>
</g>
<!-- LoginComponent -->
<g id="node8" class="node">
<title>LoginComponent</title>
<polygon fill="#ffffb3" stroke="black" points="1048.28,-84.8 933.72,-84.8 933.72,-48.8 1048.28,-48.8 1048.28,-84.8"/>
<text text-anchor="middle" x="991" y="-62.6" font-family="Times,serif" font-size="14.00">LoginComponent</text>
</g>
<!-- LoginComponent&#45;&gt;AppModule -->
<g id="edge8" class="edge">
<title>LoginComponent&#45;&gt;AppModule</title>
<path fill="none" stroke="black" d="M1031.28,-84.91C1031.28,-84.91 1031.28,-103.79 1031.28,-103.79"/>
<polygon fill="black" stroke="black" points="1027.78,-103.79 1031.28,-113.79 1034.78,-103.79 1027.78,-103.79"/>
</g>
<!-- NavComponent -->
<g id="node9" class="node">
<title>NavComponent</title>
<polygon fill="#ffffb3" stroke="black" points="915.15,-84.8 810.85,-84.8 810.85,-48.8 915.15,-48.8 915.15,-84.8"/>
<text text-anchor="middle" x="863" y="-62.6" font-family="Times,serif" font-size="14.00">NavComponent</text>
</g>
<!-- NavComponent&#45;&gt;AppModule -->
<g id="edge9" class="edge">
<title>NavComponent&#45;&gt;AppModule</title>
<path fill="none" stroke="black" d="M863,-85.04C863,-100.37 863,-119.8 863,-119.8 863,-119.8 1004.12,-119.8 1004.12,-119.8"/>
<polygon fill="black" stroke="black" points="1004.12,-123.3 1014.12,-119.8 1004.12,-116.3 1004.12,-123.3"/>
</g>
<!-- NavloguedComponent -->
<g id="node10" class="node">
<title>NavloguedComponent</title>
<polygon fill="#ffffb3" stroke="black" points="792.26,-84.8 649.74,-84.8 649.74,-48.8 792.26,-48.8 792.26,-84.8"/>
<text text-anchor="middle" x="721" y="-62.6" font-family="Times,serif" font-size="14.00">NavloguedComponent</text>
</g>
<!-- NavloguedComponent&#45;&gt;AppModule -->
<g id="edge10" class="edge">
<title>NavloguedComponent&#45;&gt;AppModule</title>
<path fill="none" stroke="black" d="M721,-84.83C721,-101.86 721,-124.8 721,-124.8 721,-124.8 1004.25,-124.8 1004.25,-124.8"/>
<polygon fill="black" stroke="black" points="1004.25,-128.3 1014.25,-124.8 1004.25,-121.3 1004.25,-128.3"/>
</g>
<!-- NotfoundComponent -->
<g id="node11" class="node">
<title>NotfoundComponent</title>
<polygon fill="#ffffb3" stroke="black" points="631.49,-84.8 496.51,-84.8 496.51,-48.8 631.49,-48.8 631.49,-84.8"/>
<text text-anchor="middle" x="564" y="-62.6" font-family="Times,serif" font-size="14.00">NotfoundComponent</text>
</g>
<!-- NotfoundComponent&#45;&gt;AppModule -->
<g id="edge11" class="edge">
<title>NotfoundComponent&#45;&gt;AppModule</title>
<path fill="none" stroke="black" d="M564,-85.02C564,-103.63 564,-129.8 564,-129.8 564,-129.8 1004.05,-129.8 1004.05,-129.8"/>
<polygon fill="black" stroke="black" points="1004.05,-133.3 1014.05,-129.8 1004.05,-126.3 1004.05,-133.3"/>
</g>
<!-- RegistrarComponent -->
<g id="node12" class="node">
<title>RegistrarComponent</title>
<polygon fill="#ffffb3" stroke="black" points="478.15,-84.8 345.85,-84.8 345.85,-48.8 478.15,-48.8 478.15,-84.8"/>
<text text-anchor="middle" x="412" y="-62.6" font-family="Times,serif" font-size="14.00">RegistrarComponent</text>
</g>
<!-- RegistrarComponent&#45;&gt;AppModule -->
<g id="edge12" class="edge">
<title>RegistrarComponent&#45;&gt;AppModule</title>
<path fill="none" stroke="black" d="M412,-85.02C412,-105.17 412,-134.8 412,-134.8 412,-134.8 1004.24,-134.8 1004.24,-134.8"/>
<polygon fill="black" stroke="black" points="1004.24,-138.3 1014.24,-134.8 1004.24,-131.3 1004.24,-138.3"/>
</g>
<!-- AppComponent  -->
<g id="node15" class="node">
<title>AppComponent </title>
<polygon fill="#80b1d3" stroke="black" points="1110.44,-214.8 1001.56,-214.8 1001.56,-178.8 1110.44,-178.8 1110.44,-214.8"/>
<text text-anchor="middle" x="1056" y="-192.6" font-family="Times,serif" font-size="14.00">AppComponent </text>
</g>
<!-- AppModule&#45;&gt;AppComponent  -->
<g id="edge14" class="edge">
<title>AppModule&#45;&gt;AppComponent </title>
<path fill="none" stroke="black" stroke-dasharray="1,5" d="M1056,-149.91C1056,-149.91 1056,-168.79 1056,-168.79"/>
<polygon fill="black" stroke="black" points="1052.5,-168.79 1056,-178.79 1059.5,-168.79 1052.5,-168.79"/>
</g>
<!-- AppRoutingModule -->
<g id="node14" class="node">
<title>AppRoutingModule</title>
<polygon fill="#8dd3c7" stroke="black" points="322.27,-84.8 319.27,-88.8 298.27,-88.8 295.27,-84.8 193.73,-84.8 193.73,-48.8 322.27,-48.8 322.27,-84.8"/>
<text text-anchor="middle" x="258" y="-62.6" font-family="Times,serif" font-size="14.00">AppRoutingModule</text>
</g>
<!-- AppRoutingModule&#45;&gt;AppModule -->
<g id="edge13" class="edge">
<title>AppRoutingModule&#45;&gt;AppModule</title>
<path fill="none" stroke="black" d="M258,-84.84C258,-106.46 258,-139.8 258,-139.8 258,-139.8 1004.22,-139.8 1004.22,-139.8"/>
<polygon fill="black" stroke="black" points="1004.22,-143.3 1014.22,-139.8 1004.22,-136.3 1004.22,-143.3"/>
</g>
<!-- ApiDataService -->
<g id="node16" class="node">
<title>ApiDataService</title>
<ellipse fill="#fdb462" stroke="black" cx="97" cy="-66.8" rx="72.91" ry="18"/>
<text text-anchor="middle" x="97" y="-62.6" font-family="Times,serif" font-size="14.00">ApiDataService</text>
</g>
<!-- ApiDataService&#45;&gt;AppModule -->
<g id="edge15" class="edge">
<title>ApiDataService&#45;&gt;AppModule</title>
<path fill="none" stroke="black" d="M97,-84.89C97,-107.93 97,-144.8 97,-144.8 97,-144.8 1004.18,-144.8 1004.18,-144.8"/>
<polygon fill="black" stroke="black" points="1004.18,-148.3 1014.18,-144.8 1004.18,-141.3 1004.18,-148.3"/>
</g>
</g>
</svg>
