<?xml version="1.0" encoding="UTF-8" standalone="no"?>
<!DOCTYPE svg PUBLIC "-//W3C//DTD SVG 1.1//EN"
 "http://www.w3.org/Graphics/SVG/1.1/DTD/svg11.dtd">
<!-- Generated by graphviz version 2.47.3 (20210619.1520)
 -->
<!-- Title: dependencies Pages: 1 -->
<svg width="2053pt" height="247pt"
 viewBox="0.00 0.00 2053.00 246.80" xmlns="http://www.w3.org/2000/svg" xmlns:xlink="http://www.w3.org/1999/xlink">
<g id="graph0" class="graph" transform="scale(1 1) rotate(0) translate(4 242.8)">
<title>dependencies</title>
<polygon fill="white" stroke="transparent" points="-4,4 -4,-242.8 2049,-242.8 2049,4 -4,4"/>
<text text-anchor="middle" x="1022.5" y="-8.2" font-family="sans-serif" font-size="14.00">dependencies</text>
<g id="clust1" class="cluster">
<title>cluster_AppModule</title>
<polygon fill="none" stroke="black" stroke-dasharray="1,5" points="8,-32.8 8,-230.8 2037,-230.8 2037,-32.8 8,-32.8"/>
</g>
<g id="clust18" class="cluster">
<title>cluster_AppModule_providers</title>
<polygon fill="none" stroke="black" points="1867,-40.8 1867,-92.8 2029,-92.8 2029,-40.8 1867,-40.8"/>
</g>
<g id="clust15" class="cluster">
<title>cluster_AppModule_imports</title>
<polygon fill="none" stroke="black" points="1715,-40.8 1715,-92.8 1859,-92.8 1859,-40.8 1715,-40.8"/>
</g>
<g id="clust17" class="cluster">
<title>cluster_AppModule_bootstrap</title>
<polygon fill="none" stroke="black" points="941,-170.8 941,-222.8 1065,-222.8 1065,-170.8 941,-170.8"/>
</g>
<g id="clust2" class="cluster">
<title>cluster_AppModule_declarations</title>
<polygon fill="none" stroke="black" points="16,-40.8 16,-92.8 1707,-92.8 1707,-40.8 16,-40.8"/>
</g>
<!-- AgregarComponent -->
<g id="node1" class="node">
<title>AgregarComponent</title>
<polygon fill="#ffffb3" stroke="black" points="1698.69,-84.8 1571.31,-84.8 1571.31,-48.8 1698.69,-48.8 1698.69,-84.8"/>
<text text-anchor="middle" x="1635" y="-62.6" font-family="Times,serif" font-size="14.00">AgregarComponent</text>
</g>
<!-- AppModule -->
<g id="node13" class="node">
<title>AppModule</title>
<polygon fill="#8dd3c7" stroke="black" points="1044.66,-149.8 1041.66,-153.8 1020.66,-153.8 1017.66,-149.8 961.34,-149.8 961.34,-113.8 1044.66,-113.8 1044.66,-149.8"/>
<text text-anchor="middle" x="1003" y="-127.6" font-family="Times,serif" font-size="14.00">AppModule</text>
</g>
<!-- AgregarComponent&#45;&gt;AppModule -->
<g id="edge1" class="edge">
<title>AgregarComponent&#45;&gt;AppModule</title>
<path fill="none" stroke="black" d="M1635,-85.02C1635,-105.17 1635,-134.8 1635,-134.8 1635,-134.8 1054.96,-134.8 1054.96,-134.8"/>
<polygon fill="black" stroke="black" points="1054.96,-131.3 1044.96,-134.8 1054.96,-138.3 1054.96,-131.3"/>
</g>
<!-- AppComponent -->
<g id="node2" class="node">
<title>AppComponent</title>
<polygon fill="#ffffb3" stroke="black" points="1553.94,-84.8 1448.06,-84.8 1448.06,-48.8 1553.94,-48.8 1553.94,-84.8"/>
<text text-anchor="middle" x="1501" y="-62.6" font-family="Times,serif" font-size="14.00">AppComponent</text>
</g>
<!-- AppComponent&#45;&gt;AppModule -->
<g id="edge2" class="edge">
<title>AppComponent&#45;&gt;AppModule</title>
<path fill="none" stroke="black" d="M1501,-85.02C1501,-103.63 1501,-129.8 1501,-129.8 1501,-129.8 1055.03,-129.8 1055.03,-129.8"/>
<polygon fill="black" stroke="black" points="1055.03,-126.3 1045.03,-129.8 1055.03,-133.3 1055.03,-126.3"/>
</g>
<!-- DetallesComponent -->
<g id="node3" class="node">
<title>DetallesComponent</title>
<polygon fill="#ffffb3" stroke="black" points="1430.7,-84.8 1303.3,-84.8 1303.3,-48.8 1430.7,-48.8 1430.7,-84.8"/>
<text text-anchor="middle" x="1367" y="-62.6" font-family="Times,serif" font-size="14.00">DetallesComponent</text>
</g>
<!-- DetallesComponent&#45;&gt;AppModule -->
<g id="edge3" class="edge">
<title>DetallesComponent&#45;&gt;AppModule</title>
<path fill="none" stroke="black" d="M1367,-84.83C1367,-101.86 1367,-124.8 1367,-124.8 1367,-124.8 1054.76,-124.8 1054.76,-124.8"/>
<polygon fill="black" stroke="black" points="1054.76,-121.3 1044.76,-124.8 1054.76,-128.3 1054.76,-121.3"/>
</g>
<!-- FooterComponent -->
<g id="node4" class="node">
<title>FooterComponent</title>
<polygon fill="#ffffb3" stroke="black" points="1284.88,-84.8 1167.12,-84.8 1167.12,-48.8 1284.88,-48.8 1284.88,-84.8"/>
<text text-anchor="middle" x="1226" y="-62.6" font-family="Times,serif" font-size="14.00">FooterComponent</text>
</g>
<!-- FooterComponent&#45;&gt;AppModule -->
<g id="edge4" class="edge">
<title>FooterComponent&#45;&gt;AppModule</title>
<path fill="none" stroke="black" d="M1226,-85.04C1226,-100.37 1226,-119.8 1226,-119.8 1226,-119.8 1054.68,-119.8 1054.68,-119.8"/>
<polygon fill="black" stroke="black" points="1054.68,-116.3 1044.68,-119.8 1054.68,-123.3 1054.68,-116.3"/>
</g>
<!-- GenerarpdfComponent -->
<g id="node5" class="node">
<title>GenerarpdfComponent</title>
<polygon fill="#ffffb3" stroke="black" points="1149.56,-84.8 1004.44,-84.8 1004.44,-48.8 1149.56,-48.8 1149.56,-84.8"/>
<text text-anchor="middle" x="1077" y="-62.6" font-family="Times,serif" font-size="14.00">GenerarpdfComponent</text>
</g>
<!-- GenerarpdfComponent&#45;&gt;AppModule -->
<g id="edge5" class="edge">
<title>GenerarpdfComponent&#45;&gt;AppModule</title>
<path fill="none" stroke="black" d="M1024.65,-84.91C1024.65,-84.91 1024.65,-103.79 1024.65,-103.79"/>
<polygon fill="black" stroke="black" points="1021.15,-103.79 1024.65,-113.79 1028.15,-103.79 1021.15,-103.79"/>
</g>
<!-- HomeComponent -->
<g id="node6" class="node">
<title>HomeComponent</title>
<polygon fill="#ffffb3" stroke="black" points="986.55,-84.8 871.45,-84.8 871.45,-48.8 986.55,-48.8 986.55,-84.8"/>
<text text-anchor="middle" x="929" y="-62.6" font-family="Times,serif" font-size="14.00">HomeComponent</text>
</g>
<!-- HomeComponent&#45;&gt;AppModule -->
<g id="edge6" class="edge">
<title>HomeComponent&#45;&gt;AppModule</title>
<path fill="none" stroke="black" d="M973.97,-84.91C973.97,-84.91 973.97,-103.79 973.97,-103.79"/>
<polygon fill="black" stroke="black" points="970.47,-103.79 973.97,-113.79 977.47,-103.79 970.47,-103.79"/>
</g>
<!-- ListaComponent -->
<g id="node7" class="node">
<title>ListaComponent</title>
<polygon fill="#ffffb3" stroke="black" points="853.83,-84.8 744.17,-84.8 744.17,-48.8 853.83,-48.8 853.83,-84.8"/>
<text text-anchor="middle" x="799" y="-62.6" font-family="Times,serif" font-size="14.00">ListaComponent</text>
</g>
<!-- ListaComponent&#45;&gt;AppModule -->
<g id="edge7" class="edge">
<title>ListaComponent&#45;&gt;AppModule</title>
<path fill="none" stroke="black" d="M799,-85.04C799,-100.37 799,-119.8 799,-119.8 799,-119.8 951.23,-119.8 951.23,-119.8"/>
<polygon fill="black" stroke="black" points="951.23,-123.3 961.23,-119.8 951.23,-116.3 951.23,-123.3"/>
</g>
<!-- LoginComponent -->
<g id="node8" class="node">
<title>LoginComponent</title>
<polygon fill="#ffffb3" stroke="black" points="726.28,-84.8 611.72,-84.8 611.72,-48.8 726.28,-48.8 726.28,-84.8"/>
<text text-anchor="middle" x="669" y="-62.6" font-family="Times,serif" font-size="14.00">LoginComponent</text>
</g>
<!-- LoginComponent&#45;&gt;AppModule -->
<g id="edge8" class="edge">
<title>LoginComponent&#45;&gt;AppModule</title>
<path fill="none" stroke="black" d="M669,-84.83C669,-101.86 669,-124.8 669,-124.8 669,-124.8 951.04,-124.8 951.04,-124.8"/>
<polygon fill="black" stroke="black" points="951.04,-128.3 961.04,-124.8 951.04,-121.3 951.04,-128.3"/>
</g>
<!-- NavComponent -->
<g id="node9" class="node">
<title>NavComponent</title>
<polygon fill="#ffffb3" stroke="black" points="593.15,-84.8 488.85,-84.8 488.85,-48.8 593.15,-48.8 593.15,-84.8"/>
<text text-anchor="middle" x="541" y="-62.6" font-family="Times,serif" font-size="14.00">NavComponent</text>
</g>
<!-- NavComponent&#45;&gt;AppModule -->
<g id="edge9" class="edge">
<title>NavComponent&#45;&gt;AppModule</title>
<path fill="none" stroke="black" d="M541,-85.02C541,-103.63 541,-129.8 541,-129.8 541,-129.8 951.19,-129.8 951.19,-129.8"/>
<polygon fill="black" stroke="black" points="951.19,-133.3 961.19,-129.8 951.19,-126.3 951.19,-133.3"/>
</g>
<!-- NavloguedComponent -->
<g id="node10" class="node">
<title>NavloguedComponent</title>
<polygon fill="#ffffb3" stroke="black" points="470.26,-84.8 327.74,-84.8 327.74,-48.8 470.26,-48.8 470.26,-84.8"/>
<text text-anchor="middle" x="399" y="-62.6" font-family="Times,serif" font-size="14.00">NavloguedComponent</text>
</g>
<!-- NavloguedComponent&#45;&gt;AppModule -->
<g id="edge10" class="edge">
<title>NavloguedComponent&#45;&gt;AppModule</title>
<path fill="none" stroke="black" d="M399,-85.02C399,-105.17 399,-134.8 399,-134.8 399,-134.8 951.01,-134.8 951.01,-134.8"/>
<polygon fill="black" stroke="black" points="951.01,-138.3 961.01,-134.8 951.01,-131.3 951.01,-138.3"/>
</g>
<!-- NotfoundComponent -->
<g id="node11" class="node">
<title>NotfoundComponent</title>
<polygon fill="#ffffb3" stroke="black" points="309.49,-84.8 174.51,-84.8 174.51,-48.8 309.49,-48.8 309.49,-84.8"/>
<text text-anchor="middle" x="242" y="-62.6" font-family="Times,serif" font-size="14.00">NotfoundComponent</text>
</g>
<!-- NotfoundComponent&#45;&gt;AppModule -->
<g id="edge11" class="edge">
<title>NotfoundComponent&#45;&gt;AppModule</title>
<path fill="none" stroke="black" d="M242,-84.84C242,-106.46 242,-139.8 242,-139.8 242,-139.8 951.27,-139.8 951.27,-139.8"/>
<polygon fill="black" stroke="black" points="951.27,-143.3 961.27,-139.8 951.27,-136.3 951.27,-143.3"/>
</g>
<!-- RegistrarComponent -->
<g id="node12" class="node">
<title>RegistrarComponent</title>
<polygon fill="#ffffb3" stroke="black" points="156.15,-84.8 23.85,-84.8 23.85,-48.8 156.15,-48.8 156.15,-84.8"/>
<text text-anchor="middle" x="90" y="-62.6" font-family="Times,serif" font-size="14.00">RegistrarComponent</text>
</g>
<!-- RegistrarComponent&#45;&gt;AppModule -->
<g id="edge12" class="edge">
<title>RegistrarComponent&#45;&gt;AppModule</title>
<path fill="none" stroke="black" d="M90,-84.89C90,-107.93 90,-144.8 90,-144.8 90,-144.8 951.1,-144.8 951.1,-144.8"/>
<polygon fill="black" stroke="black" points="951.1,-148.3 961.1,-144.8 951.1,-141.3 951.1,-148.3"/>
</g>
<!-- AppComponent  -->
<g id="node15" class="node">
<title>AppComponent </title>
<polygon fill="#80b1d3" stroke="black" points="1057.44,-214.8 948.56,-214.8 948.56,-178.8 1057.44,-178.8 1057.44,-214.8"/>
<text text-anchor="middle" x="1003" y="-192.6" font-family="Times,serif" font-size="14.00">AppComponent </text>
</g>
<!-- AppModule&#45;&gt;AppComponent  -->
<g id="edge14" class="edge">
<title>AppModule&#45;&gt;AppComponent </title>
<path fill="none" stroke="black" stroke-dasharray="1,5" d="M1003,-149.91C1003,-149.91 1003,-168.79 1003,-168.79"/>
<polygon fill="black" stroke="black" points="999.5,-168.79 1003,-178.79 1006.5,-168.79 999.5,-168.79"/>
</g>
<!-- AppRoutingModule -->
<g id="node14" class="node">
<title>AppRoutingModule</title>
<polygon fill="#8dd3c7" stroke="black" points="1851.27,-84.8 1848.27,-88.8 1827.27,-88.8 1824.27,-84.8 1722.73,-84.8 1722.73,-48.8 1851.27,-48.8 1851.27,-84.8"/>
<text text-anchor="middle" x="1787" y="-62.6" font-family="Times,serif" font-size="14.00">AppRoutingModule</text>
</g>
<!-- AppRoutingModule&#45;&gt;AppModule -->
<g id="edge13" class="edge">
<title>AppRoutingModule&#45;&gt;AppModule</title>
<path fill="none" stroke="black" d="M1787,-84.84C1787,-106.46 1787,-139.8 1787,-139.8 1787,-139.8 1054.87,-139.8 1054.87,-139.8"/>
<polygon fill="black" stroke="black" points="1054.87,-136.3 1044.87,-139.8 1054.87,-143.3 1054.87,-136.3"/>
</g>
<!-- ApiDataService -->
<g id="node16" class="node">
<title>ApiDataService</title>
<ellipse fill="#fdb462" stroke="black" cx="1948" cy="-66.8" rx="72.91" ry="18"/>
<text text-anchor="middle" x="1948" y="-62.6" font-family="Times,serif" font-size="14.00">ApiDataService</text>
</g>
<!-- ApiDataService&#45;&gt;AppModule -->
<g id="edge15" class="edge">
<title>ApiDataService&#45;&gt;AppModule</title>
<path fill="none" stroke="black" d="M1948,-84.89C1948,-107.93 1948,-144.8 1948,-144.8 1948,-144.8 1054.82,-144.8 1054.82,-144.8"/>
<polygon fill="black" stroke="black" points="1054.82,-141.3 1044.82,-144.8 1054.82,-148.3 1054.82,-141.3"/>
</g>
</g>
</svg>
